<?xml version="1.0" encoding="UTF-8"?>
<svg width="32" height="32" viewBox="0 0 32 32" fill="none" xmlns="http://www.w3.org/2000/svg">
  <!-- Cookie base -->
  <path d="M16 4C9.373 4 4 9.373 4 16s5.373 12 12 12 12-5.373 12-12S22.627 4 16 4z" fill="#F4A460"/>
  
  <!-- Cookie texture -->
  <path d="M16 6c-5.523 0-10 4.477-10 10s4.477 10 10 10 10-4.477 10-10-4.477-10-10-10z" fill="#D2691E"/>
  
  <!-- Fortune paper -->
  <path d="M14 12h4v8h-4z" fill="#FFD700"/>
  
  <!-- Cookie cracks -->
  <path d="M10 14l2-2M22 14l-2-2M12 20l2 2M20 20l-2 2" stroke="#8B4513" stroke-width="1.5" stroke-linecap="round"/>
</svg> 